<mxfile host="app.diagrams.net" agent="Mozilla/5.0 (Windows NT 10.0; Win64; x64) AppleWebKit/537.36 (KHTML, like Gecko) Chrome/136.0.0.0 Safari/537.36" version="27.0.6">
  <diagram name="Page-1" id="l9VPGv5L5WkAi1hs0hqj">
    <mxGraphModel dx="957" dy="570" grid="1" gridSize="10" guides="1" tooltips="1" connect="1" arrows="1" fold="1" page="1" pageScale="1" pageWidth="850" pageHeight="1100" math="0" shadow="0">
      <root>
        <mxCell id="0" />
        <mxCell id="1" parent="0" />
        <mxCell id="Z-Tdkm2SU8wekWhBYsLp-24" style="edgeStyle=orthogonalEdgeStyle;rounded=0;orthogonalLoop=1;jettySize=auto;html=1;entryX=0.5;entryY=0;entryDx=0;entryDy=0;" parent="1" source="Z-Tdkm2SU8wekWhBYsLp-1" target="Z-Tdkm2SU8wekWhBYsLp-4" edge="1">
          <mxGeometry relative="1" as="geometry" />
        </mxCell>
        <mxCell id="Z-Tdkm2SU8wekWhBYsLp-1" value="Mulai" style="rounded=1;whiteSpace=wrap;html=1;" parent="1" vertex="1">
          <mxGeometry x="360" y="10" width="120" height="30" as="geometry" />
        </mxCell>
        <mxCell id="Z-Tdkm2SU8wekWhBYsLp-7" value="" style="edgeStyle=orthogonalEdgeStyle;rounded=0;orthogonalLoop=1;jettySize=auto;html=1;" parent="1" source="Z-Tdkm2SU8wekWhBYsLp-4" target="Z-Tdkm2SU8wekWhBYsLp-6" edge="1">
          <mxGeometry relative="1" as="geometry" />
        </mxCell>
        <mxCell id="Z-Tdkm2SU8wekWhBYsLp-4" value="Data Understanding" style="whiteSpace=wrap;html=1;rounded=0;" parent="1" vertex="1">
          <mxGeometry x="360" y="60" width="120" height="30" as="geometry" />
        </mxCell>
        <mxCell id="Z-Tdkm2SU8wekWhBYsLp-9" value="" style="edgeStyle=orthogonalEdgeStyle;rounded=0;orthogonalLoop=1;jettySize=auto;html=1;" parent="1" source="Z-Tdkm2SU8wekWhBYsLp-6" target="Z-Tdkm2SU8wekWhBYsLp-8" edge="1">
          <mxGeometry relative="1" as="geometry" />
        </mxCell>
        <mxCell id="Z-Tdkm2SU8wekWhBYsLp-6" value="Data Preprocessing" style="whiteSpace=wrap;html=1;rounded=0;" parent="1" vertex="1">
          <mxGeometry x="360" y="120" width="120" height="30" as="geometry" />
        </mxCell>
        <mxCell id="Z-Tdkm2SU8wekWhBYsLp-23" style="edgeStyle=orthogonalEdgeStyle;rounded=0;orthogonalLoop=1;jettySize=auto;html=1;entryX=0.5;entryY=0;entryDx=0;entryDy=0;" parent="1" source="Z-Tdkm2SU8wekWhBYsLp-8" target="Z-Tdkm2SU8wekWhBYsLp-10" edge="1">
          <mxGeometry relative="1" as="geometry" />
        </mxCell>
        <mxCell id="Z-Tdkm2SU8wekWhBYsLp-8" value="Pemodelan" style="whiteSpace=wrap;html=1;rounded=0;" parent="1" vertex="1">
          <mxGeometry x="360" y="170" width="120" height="40" as="geometry" />
        </mxCell>
        <mxCell id="Z-Tdkm2SU8wekWhBYsLp-21" style="edgeStyle=orthogonalEdgeStyle;rounded=0;orthogonalLoop=1;jettySize=auto;html=1;entryX=0.5;entryY=0;entryDx=0;entryDy=0;" parent="1" source="Z-Tdkm2SU8wekWhBYsLp-10" target="Z-Tdkm2SU8wekWhBYsLp-14" edge="1">
          <mxGeometry relative="1" as="geometry" />
        </mxCell>
        <mxCell id="Z-Tdkm2SU8wekWhBYsLp-10" value="Evaluasi Model" style="whiteSpace=wrap;html=1;rounded=0;" parent="1" vertex="1">
          <mxGeometry x="360" y="240" width="120" height="40" as="geometry" />
        </mxCell>
        <mxCell id="Z-Tdkm2SU8wekWhBYsLp-17" value="" style="edgeStyle=orthogonalEdgeStyle;rounded=0;orthogonalLoop=1;jettySize=auto;html=1;" parent="1" source="Z-Tdkm2SU8wekWhBYsLp-14" target="Z-Tdkm2SU8wekWhBYsLp-16" edge="1">
          <mxGeometry relative="1" as="geometry" />
        </mxCell>
        <mxCell id="Z-Tdkm2SU8wekWhBYsLp-14" value="Implementasi&amp;nbsp;&lt;div&gt;Website&lt;/div&gt;" style="whiteSpace=wrap;html=1;rounded=0;" parent="1" vertex="1">
          <mxGeometry x="360" y="302" width="120" height="40" as="geometry" />
        </mxCell>
        <mxCell id="Z-Tdkm2SU8wekWhBYsLp-16" value="Selesai" style="whiteSpace=wrap;html=1;rounded=1;" parent="1" vertex="1">
          <mxGeometry x="360" y="362" width="120" height="30" as="geometry" />
        </mxCell>
      </root>
    </mxGraphModel>
  </diagram>
</mxfile>
